<?xml version="1.0" encoding="UTF-8" standalone="no"?>
<!-- Created with Inkscape (http://www.inkscape.org/) -->

<svg
   version="1.1"
   id="svg1"
   width="1024"
   height="1024"
   viewBox="0 0 1024 1024"
   sodipodi:docname="pglint-icon.svg"
   xml:space="preserve"
   inkscape:version="1.4 (e7c3feb, 2024-10-09)"
   inkscape:export-filename="pglint-logo.png"
   inkscape:export-xdpi="24"
   inkscape:export-ydpi="24"
   xmlns:inkscape="http://www.inkscape.org/namespaces/inkscape"
   xmlns:sodipodi="http://sodipodi.sourceforge.net/DTD/sodipodi-0.dtd"
   xmlns="http://www.w3.org/2000/svg"
   xmlns:svg="http://www.w3.org/2000/svg"><defs
     id="defs1"><rect
       x="433.74208"
       y="1102.8269"
       width="1254.705"
       height="949.58045"
       id="rect429" /><rect
       x="433.74207"
       y="1102.8269"
       width="1254.705"
       height="949.58044"
       id="rect429-3" /></defs><sodipodi:namedview
     id="namedview1"
     pagecolor="#ffffff"
     bordercolor="#000000"
     borderopacity="0.25"
     inkscape:showpageshadow="2"
     inkscape:pageopacity="0.0"
     inkscape:pagecheckerboard="0"
     inkscape:deskcolor="#d1d1d1"
     inkscape:zoom="0.49225722"
     inkscape:cx="784.14289"
     inkscape:cy="374.80405"
     inkscape:window-width="1920"
     inkscape:window-height="1026"
     inkscape:window-x="0"
     inkscape:window-y="0"
     inkscape:window-maximized="1"
     inkscape:current-layer="svg1"
     showguides="true"
     inkscape:export-bgcolor="#ffffffff"><sodipodi:guide
       position="900.32267,480.7962"
       orientation="0,-1"
       id="guide428"
       inkscape:locked="false" /><sodipodi:guide
       position="748.44453,22.425234"
       orientation="0,-1"
       id="guide429"
       inkscape:locked="false" /></sodipodi:namedview><rect
     style="fill:#ffffff;fill-opacity:1;stroke:none;stroke-width:0.996243"
     id="rect430"
     width="1088.2588"
     height="1082.8038"
     x="-27.274656"
     y="-16.364794" /><g
     inkscape:groupmode="layer"
     inkscape:label="Image"
     id="g1"><path
       style="fill:#2b5679;fill-opacity:1;stroke:none;stroke-width:0.669345"
       d="m 274.76391,488.63056 c 4.65516,9.98265 19.4462,16.15636 29.45116,19.02361 28.43457,8.14908 54.19035,5.05253 81.66006,-4.29803 0,35.23485 0.12805,73.34268 11.37886,107.09511 4.69057,14.07184 10.09646,27.65572 20.19445,38.82153 28.8327,31.88144 86.10719,21.89372 118.35989,0.66774 8.06728,-5.30918 15.35885,-11.72445 21.26147,-19.40892 24.33911,-31.68617 28.37352,-73.99004 31.00726,-112.44988 0.71017,-10.36961 1.91955,-21.07406 1.94819,-31.45919 40.71289,0 79.25536,-4.40897 111.78056,-31.8543 16.19941,-13.66939 29.50201,-41.40051 7.30289,-56.93768 -3.01641,-2.1112 -6.41922,-3.84518 -9.98026,-4.8099 -19.50893,-5.28498 -41.6384,4.57903 -61.57971,4.57903 13.23594,-18.21913 22.98897,-40.49891 32.3351,-60.91036 20.77117,-45.36314 37.68122,-93.69334 44.82079,-143.23976 4.01981,-27.89624 6.60088,-59.19729 -5.16059,-85.67612 C 704.77087,97.027398 695.94891,87.860308 687.74957,79.660948 668.11428,60.025668 644.44927,45.118952 618.13773,36.155599 585.29968,24.968918 549.28981,22.714082 515.05864,26.973309 c -9.65636,1.201501 -19.31253,2.841815 -28.78181,5.086719 -5.13261,1.21678 -10.8043,3.640994 -16.06427,3.910174 -8.13314,0.416177 -17.28396,-2.274036 -25.4351,-3.04976 -17.99513,-1.712586 -37.07468,-1.703141 -54.88626,1.634105 -10.51468,1.970034 -20.94434,4.846174 -30.78986,9.062504 -5.14772,2.204492 -11.26306,7.050587 -16.73361,7.914877 -4.93207,0.7792 -12.63463,-3.44085 -17.40298,-4.855804 -11.60508,-3.44371 -23.56454,-6.08232 -35.47526,-8.230482 C 239.73155,29.471628 178.48621,30.428861 139.55626,67.639098 76.998975,127.43299 95.218855,223.92729 113.87119,298.53667 c 3.98003,15.92014 8.07669,31.7739 12.68347,47.52347 6.50753,22.24787 14.02494,44.07624 22.63996,65.59579 15.84672,39.5837 47.19037,104.27673 100.13419,90.71065 9.80892,-2.51339 17.18308,-8.28297 25.4351,-13.73602 m 303.21314,-22.75772 c -0.22316,26.95893 -6.33809,54.93974 -9.85169,81.66008 -3.27664,24.91837 -5.39672,52.71826 -20.77498,73.62785 -10.36138,14.08823 -26.50953,22.34961 -43.00125,27.05578 -28.76019,8.20718 -62.0188,9.48275 -82.55301,-16.34626 -15.55987,-19.57184 -18.9246,-42.80835 -20.58597,-66.93441 -2.10195,-30.5236 -2.61747,-61.05624 -2.61747,-91.70025 -24.47024,21.3106 -54.80361,25.21318 -85.67613,18.60062 -12.148,-2.60192 -32.71047,-11.4966 -28.1533,-27.3021 3.76165,-13.04658 22.54005,-14.72595 33.50807,-17.32551 18.29326,-4.3357 29.91816,-11.12826 40.16068,-27.52059 -8.98615,-2.1404 -17.91495,-2.47825 -26.7738,-5.58561 -2.88487,-1.01191 -7.65234,-4.59346 -10.70951,-3.20521 -6.4087,2.91012 -12.20489,12.3347 -16.84674,17.4923 -4.60368,5.11512 -9.24077,10.19771 -13.75463,15.39494 -18.02679,20.75606 -40.49715,55.17513 -72.47771,38.22651 -12.27068,-6.50307 -21.21099,-17.49506 -28.78185,-28.85569 -13.6863,-20.53732 -23.64255,-43.74941 -31.92245,-66.93446 -23.31,-65.27158 -44.38283,-137.09977 -44.38283,-206.82751 0,-38.34744 11.67707,-80.190932 42.83805,-104.896012 38.53776,-30.553553 94.2427,-28.895917 139.89306,-19.15951 10.54472,2.24899 21.2011,4.69433 31.4592,8.03782 5.01534,1.63468 11.92217,5.53148 17.21187,5.40231 4.62865,-0.11304 10.70891,-5.94145 14.91668,-7.93302 10.81768,-5.12014 22.31582,-8.86392 34.13657,-10.799881 15.86221,-2.597878 32.89729,-2.898356 48.86216,-0.982818 8.16835,0.980079 18.0098,4.642649 26.10445,4.160149 4.39559,-0.26198 9.11969,-2.63741 13.3869,-3.759373 9.25355,-2.433029 18.64493,-4.370182 28.11247,-5.764847 33.56938,-4.945025 68.63795,-3.716933 101.07105,6.96046 25.40022,8.36211 48.65192,22.9271 66.9943,42.39183 6.52732,6.92659 12.96005,13.885472 16.75899,22.755152 8.76139,20.45594 6.60622,45.4434 4.03467,66.93446 -6.1838,51.67828 -23.99326,103.04289 -46.14195,149.93321 -8.29858,17.5687 -17.45449,34.74007 -27.20451,51.53954 -3.40715,5.87065 -12.50275,15.36127 -13.1824,22.05945 -0.25381,2.50162 2.90081,3.57035 4.765,4.24641 5.23923,1.9 11.17377,2.87547 16.73361,3.11896 16.31622,0.71453 32.19093,-3.10864 48.19282,-5.60267 6.54533,-1.02015 15.22699,-0.923 19.54219,4.98859 10.07731,13.80548 -11.35764,29.09995 -20.88087,35.44635 -21.7171,14.47244 -47.6781,20.74968 -73.62792,20.74968 -9.59807,0 -19.66213,0.0939 -28.78182,-3.34672 M 496.98633,62.927338 v 0.66933 c 42.08459,14.3305 77.27994,54.020892 98.30017,91.700242 7.19258,12.89293 15.17926,28.0264 17.29554,42.83806 2.90462,20.32914 -3.78957,42.07435 -5.70959,62.24905 -1.49182,15.6756 1.56707,31.33366 3.12003,46.85413 2.09865,20.97483 2.72242,42.16872 -4.8569,62.24906 -2.47993,6.57015 -11.0284,15.97746 -3.73147,21.41903 9.81528,-15.97951 19.2193,-32.08401 27.6084,-48.86216 24.02311,-48.04624 43.39489,-99.32926 51.65828,-152.61059 3.22618,-20.80174 7.0579,-46.90839 -1.53749,-66.93447 -9.43689,-21.98665 -37.05767,-40.667322 -58.3182,-49.916802 -15.27363,-6.64484 -31.05511,-10.83526 -47.52347,-13.18289 -26.05457,-3.71414 -50.53954,0.2006 -76.3053,3.52801 M 294.84426,211.52186 c 6.69544,-1.92873 12.90421,-5.98954 19.41098,-8.56511 10.94634,-4.33293 22.43604,-6.94134 34.13659,-8.05489 31.49279,-2.99714 49.457,20.44246 54.27113,48.74855 6.70041,39.39672 7.51252,76.2575 -8.09411,113.78859 -6.28047,15.10324 -17.3041,32.88956 -18.06455,49.53152 16.57713,-4.28899 32.62392,8.76945 37.65111,24.0964 2.98387,9.09751 2.22844,19.98188 1.81386,29.45117 -1.15289,26.32782 -0.48227,52.68213 0.66934,78.98266 0.83473,19.06363 0.31479,39.75623 5.86406,58.23303 6.90489,22.99051 25.1776,41.15612 50.38726,39.43142 20.69252,-1.41573 45.40607,-7.72055 59.37075,-24.03656 11.25757,-13.15316 14.01138,-31.65861 16.447,-48.19276 4.16253,-28.25754 8.04572,-56.60904 11.08601,-85.00679 2.89559,-27.04654 -2.3931,-64.85536 30.23156,-74.29727 -4.41781,-11.42274 -15.62505,-20.87829 -21.25377,-32.12855 -5.08963,-10.17265 -10.24151,-20.20323 -15.84426,-30.1205 -4.33715,-7.67709 -8.3251,-15.54074 -12.26822,-23.42707 -3.08508,-6.17011 -5.94592,-12.40776 -8.67872,-18.74165 -12.87946,-29.85092 -30.04729,-80.90948 7.17478,-101.20999 5.01553,-2.73543 10.46775,-4.83742 16.06427,-6.01634 13.01835,-2.74233 25.69513,-1.47844 38.82199,-1.2075 -24.5262,-72.49669 -93.19574,-127.844852 -170.6829,-127.844852 -36.61923,0 -69.70307,11.04615 -93.02913,40.830042 -10.91983,13.94299 -18.52974,30.12466 -24.10618,46.85412 -6.16172,18.48517 -11.32491,39.30472 -11.37885,58.90233 m 12.04819,187.41651 c -18.94801,-14.437 -31.06803,-40.64099 -32.10223,-64.25709 -0.65188,-14.88548 2.64591,-29.37719 3.29404,-44.17674 0.93233,-21.29031 -1.81366,-42.39329 -1.30254,-63.58775 0.69397,-28.77542 5.47665,-58.64777 15.66968,-85.67611 5.29165,-14.03157 12.0122,-27.93204 20.7513,-40.16069 4.63012,-6.479002 12.47685,-12.331892 15.77813,-19.411002 -22.06609,-7.1801 -45.66918,-13.40573 -68.9425,-14.70182 -18.08489,-1.00712 -36.42574,-1.64043 -54.21692,2.57615 -10.40784,2.4667 -20.96383,5.84864 -30.12053,11.49971 -56.71982,35.004782 -49.80857,112.371922 -38.55448,168.631482 2.10649,10.53041 4.48356,20.97867 6.81122,31.4592 3.13985,14.13754 6.74186,28.24206 10.71158,42.16871 10.2421,35.9316 21.67336,71.99541 39.25118,105.08711 7.48282,14.08709 17.14709,31.411 31.98137,38.82714 9.5397,4.76924 18.42084,1.34809 26.0946,-5.10268 14.29259,-12.01476 26.18323,-29.64049 38.4465,-43.76462 5.29022,-6.09298 13.13822,-11.98129 16.4496,-19.411 m 279.11673,-28.11248 c 6.2895,-7.78493 7.08414,-20.59607 8.22323,-30.12051 3.56902,-29.84299 -7.30529,-59.57453 -3.25381,-89.69218 1.35128,-10.04479 3.0186,-20.05419 4.21024,-30.12051 0.28842,-2.43613 1.29813,-8.86273 -0.88206,-10.58969 -3.29083,-2.60671 -12.31173,-1.45852 -16.32973,-1.45852 -17.10276,0 -38.13912,2.4567 -43.18719,22.08837 -6.68809,26.00934 8.84056,56.84519 19.61347,79.65203 9.54331,20.20392 20.35838,40.97039 31.60585,60.24101 M 349.06117,211.80591 c -14.51461,1.9057 -28.42285,5.4039 -41.49938,12.28684 -3.86525,2.03446 -10.34933,4.63623 -12.699,8.48974 -2.1071,3.45572 -0.20951,9.31807 -0.0448,13.07595 0.48774,11.13668 0.95963,22.29754 0.68594,33.46723 -0.44204,18.03971 -4.76988,36.1782 -3.97992,54.21693 0.80301,18.33793 9.15871,36.62721 22.06254,49.53101 4.92182,4.92179 10.52063,9.05216 16.73307,12.2119 7.51601,3.8228 18.66884,8.57374 27.37031,7.0999 3.64264,-0.61697 4.43729,-7.639 5.42758,-10.60983 3.55944,-10.67838 7.58856,-21.1291 12.04821,-31.4592 4.7302,-10.95664 9.60155,-21.77572 12.28167,-33.46723 5.77879,-25.20951 3.61111,-51.04816 -0.62597,-76.3053 -3.54311,-21.12051 -12.00764,-41.91914 -37.76014,-38.53794 m 212.18227,6.60309 c 4.4006,-0.57326 12.61171,-1.38339 15.66038,2.63399 5.38039,7.08997 -8.02477,15.17244 -13.65236,15.78793 -5.73768,0.62756 -18.79701,-4.88036 -14.60523,-12.52128 2.13661,-3.89465 8.55696,-5.37434 12.59721,-5.90064 m -211.51293,4.69313 c 6.99908,-1.04274 17.16669,-0.20953 22.66836,4.74535 7.73535,6.96655 -4.01901,15.16263 -10.62016,16.25433 -6.75167,1.1166 -13.16627,-2.66727 -17.20155,-7.824 -4.73749,-6.05417 -2.55656,-12.027 5.15335,-13.17568 m 332.66431,201.94069 c -21.39782,2.76341 -41.95258,7.88024 -63.58774,3.47582 -11.93086,-2.42883 -22.84948,-13.37248 -33.91656,-1.9946 -3.60931,3.71069 -8.55637,18.52823 -3.35395,22.55782 5.45488,4.22515 16.07719,3.40408 22.54493,3.40408 21.54259,0 43.5734,-3.78798 62.24906,-14.99309 5.64672,-3.38798 12.1666,-7.03172 16.06426,-12.45003 m -379.51842,43.50739 v 1.33869 c 24.09633,14.06155 60.4983,11.21807 81.66004,-6.89435 4.88481,-4.18088 11.17291,-9.77765 13.64567,-15.86336 3.7824,-9.30906 -3.50636,-22.77099 -13.64567,-23.97197 -4.97704,-0.58951 -8.12638,2.54142 -11.35249,5.90016 -6.37818,6.64041 -11.06741,14.90084 -18.10844,20.91342 -14.41776,12.31179 -34.84167,12.92953 -52.19911,18.57741 z"
       id="path3" /><path
       style="fill:#000000"
       id="path2" /><path
       style="display:none;fill:#000000"
       id="path1"
       d="" /><path
       style="display:inline;fill:#bc2425;fill-opacity:1;stroke:none;stroke-width:0.551284"
       d="m 274.52396,544.44331 c -40.87339,5.85301 -55.05353,47.76152 -73.65337,79.14875 -47.14038,79.54939 -92.96865,160.016 -138.745663,240.35964 -16.180546,28.39873 -41.982433,59.18788 -28.616131,93.71824 1.931974,4.99106 4.382207,9.97996 7.50698,14.33334 10.12356,14.10388 25.550982,23.14303 42.764051,25.20163 8.426404,1.00778 17.423943,0.15749 25.910333,0.15749 h 44.10269 222.71858 70.56425 c 12.75306,0 26.59547,1.51292 39.14113,-0.99674 35.32333,-7.06606 57.50405,-46.11912 45.17549,-80.04196 -4.73168,-13.01958 -13.20733,-25.00166 -20.13375,-36.93603 -11.1801,-19.26359 -22.35284,-38.54147 -33.3939,-57.88479 -38.39173,-67.26 -77.76004,-133.96071 -116.15495,-201.21851 -6.31584,-11.0637 -12.8096,-22.02525 -19.14562,-33.07703 -4.93323,-8.60491 -9.43713,-17.5058 -16.2688,-24.80731 -12.76442,-13.64231 -33.27821,-20.60493 -51.77132,-17.95672"
       id="path5"
       sodipodi:nodetypes="cssssssccssssssssc" /><path
       style="fill:#000000"
       id="path8" /><path
       style="fill:#000000"
       id="path7" /><circle
       style="fill:#019301;fill-opacity:1;stroke:none;stroke-width:0.887006"
       id="path428"
       cx="772.77448"
       cy="772.77448"
       r="228.48511" /><text
       xml:space="preserve"
       id="text429"
       style="font-style:normal;font-variant:normal;font-weight:bold;font-stretch:normal;font-size:533.333px;font-family:mononoki;-inkscape-font-specification:'mononoki Bold';text-align:start;writing-mode:lr-tb;direction:ltr;white-space:pre;shape-inside:url(#rect429);display:inline;fill:#ffffff;fill-opacity:1;stroke:none"
       transform="matrix(0.82797274,0,0,0.82797274,-224.68524,-401.19897)"><tspan
         x="433.74219"
         y="1572.1069"
         id="tspan2">&lt;</tspan></text><text
       xml:space="preserve"
       id="text429-4"
       style="font-style:normal;font-variant:normal;font-weight:bold;font-stretch:normal;font-size:533.333px;font-family:mononoki;-inkscape-font-specification:'mononoki Bold';text-align:start;writing-mode:lr-tb;direction:ltr;white-space:pre;shape-inside:url(#rect429-3);display:inline;fill:#ffffff;fill-opacity:1;stroke:none"
       transform="matrix(0.82797274,0,0,0.82797274,327.51702,-405.30911)"><tspan
         x="433.74219"
         y="1572.1069"
         id="tspan3">&gt;</tspan></text></g></svg>
